<?xml version="1.0" encoding="utf-8"?>
<!-- Generator: Adobe Illustrator 25.2.1, SVG Export Plug-In . SVG Version: 6.00 Build 0)  -->
<svg version="1.1" id="レイヤー_1" xmlns="http://www.w3.org/2000/svg" xmlns:xlink="http://www.w3.org/1999/xlink" x="0px"
	 y="0px" viewBox="0 0 116.9 39.7" style="enable-background:new 0 0 116.9 39.7;" xml:space="preserve">
<style type="text/css">
	.st0{enable-background:new    ;}
	.st1{fill:#FFFFFF;}
	.st2{fill:#D8D8D8;}
</style>
<g class="st0">
	<path class="st1" d="M56.6,4.5c1.5,0,2.3,0.9,2.3,2.1c0,0.9-0.5,2.1-2.2,2.1l2.7,3.6h-0.7L56,8.8h-1v3.6h-0.6V4.5H56.6z M55,5.1
		v3.1h1.3c0.5,0,1.9,0,1.9-1.5s-1.3-1.5-1.9-1.5L55,5.1L55,5.1z"/>
	<path class="st1" d="M62.2,4.5v7.8h-0.7V4.5H62.2z"/>
	<path class="st1" d="M71.1,5.7C70.8,5.4,70,5,68.8,5c-2.2,0-3.5,1.6-3.5,3.5c0,1.8,1.1,3.5,3.6,3.5c0.7,0,1.3-0.1,2-0.4V8.9h-2.2
		V8.3h2.8V12c-0.4,0.2-1.3,0.5-2.6,0.5c-3.1,0-4.2-2.3-4.2-4.1c0-2.1,1.4-4,4.1-4c1.2,0,2,0.4,2.6,0.7L71.1,5.7z"/>
	<path class="st1" d="M78.8,7.9V4.5h0.6v7.8h-0.6V8.5h-4.2v3.9H74V4.5h0.6v3.4H78.8z"/>
	<path class="st1" d="M84.6,12.4H84V5.1h-2.6V4.5h5.9v0.6h-2.6v7.3H84.6z"/>
</g>
<g class="st0">
	<path class="st1" d="M58.5,19.6v0.6H55v3.7h-0.6V16h4.4v0.6H55v2.9h3.5V19.6z"/>
	<path class="st1" d="M63.5,16c1.5,0,2.3,0.9,2.3,2.1c0,0.9-0.5,2.1-2.2,2.1l2.7,3.6h-0.7L63,20.2h-1v3.6h-0.6V16H63.5z M61.9,16.6
		v3.1h1.3c0.5,0,1.9,0,1.9-1.5s-1.3-1.5-1.9-1.5h-1.3V16.6z"/>
	<path class="st1" d="M72.3,19.5v0.6h-3.5v3.2h4v0.6h-4.6V16h4.4v0.6h-3.8v2.9H72.3z"/>
	<path class="st1" d="M79.1,19.5v0.6h-3.5v3.2h4v0.6H75V16h4.4v0.6h-3.8v2.9H79.1z"/>
</g>
<g class="st0">
	<path class="st1" d="M56.7,27.5c0.7,0,2.5,0,2.5,1.9c0,1.2-0.7,1.6-1.2,1.8c0.4,0.2,1.4,0.5,1.4,1.9c0,2.1-2,2.1-2.7,2.1h-2.3v-7.8
		h2.3V27.5z M55,28.1V31h1.7c0.5,0,1.8,0,1.8-1.5c0-1.4-1.1-1.4-2-1.4H55z M55,31.6v3.2h1.6c0.7,0,2.2,0,2.2-1.5
		c0-1.6-1.5-1.7-2.1-1.7C56.7,31.6,55,31.6,55,31.6z"/>
	<path class="st1" d="M68,27.5V32c0,1.2-0.1,3.5-3.1,3.5c-3.1,0-3.1-2.4-3.1-3.5v-4.4h0.6V32c0,1.2,0.1,3,2.5,3s2.5-1.8,2.5-3v-4.4
		H68V27.5z"/>
	<path class="st1" d="M74,28.4c-0.3-0.1-0.7-0.4-1.5-0.4c-1.1,0-1.6,0.8-1.6,1.5c0,0.9,0.7,1.2,1.6,1.6c0.9,0.3,2.1,0.8,2.1,2.2
		c0,1.4-1.2,2.2-2.6,2.2c-0.7,0-1.4-0.2-2-0.6l0.2-0.6c0.5,0.3,1.1,0.6,1.8,0.6c0.9,0,2-0.4,2-1.6c0-1.1-0.8-1.4-1.7-1.7
		c-0.9-0.3-2-0.8-2-2.1c0-1.1,0.8-2.1,2.2-2.1c0.6,0,1.1,0.1,1.6,0.4L74,28.4z"/>
	<path class="st1" d="M77.9,27.5v7.8h-0.7v-7.8H77.9z"/>
	<path class="st1" d="M81.6,27.5l4.9,7.3v-7.3h0.6v7.8h-1L81.2,28v7.3h-0.6v-7.8H81.6z"/>
	<path class="st1" d="M93.8,31v0.6h-3.5v3.2h3.9v0.6h-4.6v-7.8H94v0.6h-3.8V31H93.8z"/>
	<path class="st1" d="M100,28.4c-0.3-0.1-0.7-0.4-1.5-0.4c-1.1,0-1.6,0.8-1.6,1.5c0,0.9,0.7,1.2,1.6,1.6c0.9,0.3,2.1,0.8,2.1,2.2
		c0,1.4-1.2,2.2-2.6,2.2c-0.7,0-1.4-0.2-2-0.6l0.2-0.6c0.5,0.3,1.1,0.6,1.8,0.6c0.9,0,2-0.4,2-1.6c0-1.1-0.8-1.4-1.7-1.7
		c-0.9-0.3-2-0.8-2-2.1c0-1.1,0.8-2.1,2.2-2.1c0.6,0,1.1,0.1,1.6,0.4L100,28.4z"/>
	<path class="st1" d="M106.4,28.4c-0.3-0.1-0.7-0.4-1.5-0.4c-1.1,0-1.6,0.8-1.6,1.5c0,0.9,0.7,1.2,1.6,1.6c0.9,0.3,2.1,0.8,2.1,2.2
		c0,1.4-1.2,2.2-2.6,2.2c-0.7,0-1.4-0.2-2-0.6l0.2-0.6c0.5,0.3,1.1,0.6,1.8,0.6c0.9,0,2-0.4,2-1.6c0-1.1-0.8-1.4-1.7-1.7
		c-0.9-0.3-2-0.8-2-2.1c0-1.1,0.8-2.1,2.2-2.1c0.6,0,1.1,0.1,1.6,0.4L106.4,28.4z"/>
</g>
<g>
	<g>
		<path class="st2" d="M39,14.7c-0.5-0.6-1.2-0.9-2.3-0.9h-1.2v5.9c0,0.3,0.1,0.5,0.4,0.7c0.2,0.1,0.5,0.2,0.8,0.2
			c1.9,0,2.9-1.1,2.9-3.4C39.5,16.1,39.4,15.2,39,14.7z"/>
		<path class="st2" d="M31.6,31.6c-0.3,0.3-0.7,0.6-1.1,0.9c0.4,0.2,0.8,0.4,1.1,0.7V31.6z"/>
		<path class="st2" d="M27.5,27.2c0-0.5,0.1-0.9,0.2-1.3h-2.3c0.1,0.3,0.2,0.7,0.2,1.2v7.3h1.9C27.5,34.4,27.5,27.2,27.5,27.2z"/>
		<path class="st2" d="M41.3,20.5c-1.2,0.6-2.6,0.9-4.2,0.9H30c-0.3,0-0.4-0.1-0.4-0.5c0-0.3,0.3-0.4,0.8-0.4s0.9-0.1,1.1-0.2
			c0.2-0.2,0.3-0.5,0.3-1.1v-10h-5.3c0.1,0.3,0.1,0.5,0.1,0.8c0,2.2-1.3,3.5-4,4c2.7,4.3,4.5,6.5,5.2,6.5c0.3,0,0.4,0.1,0.4,0.4
			s-0.1,0.4-0.4,0.4H24c-0.1,0-0.2-0.1-0.3-0.2l-4.5-6.9h-0.6l-0.2,0.3v4.7c0,0.6,0.1,0.9,0.3,1.1c0.2,0.1,0.5,0.2,1,0.2
			s0.7,0.1,0.7,0.4s-0.1,0.4-0.4,0.4h-5.5l-0.3,0.5l7.3,12.6h3.2v-7.3c0-0.6-0.1-0.9-0.3-1.1c-0.2-0.1-0.5-0.2-1.1-0.2
			c-0.4,0-0.5-0.1-0.5-0.5c0-0.3,0.1-0.4,0.4-0.4h12.1c0.3,0,0.4,0.1,0.4,0.4V29c0,0.3-0.1,0.4-0.4,0.4c-0.3,0-0.5-0.1-0.5-0.4
			c0-1-0.5-1.8-1.5-2.4c-0.9-0.5-1.8-0.8-2.9-0.8H29c-0.4,0-0.6,0.4-0.6,1.3V32c2.2,0,3.3-1.1,3.3-3.2c0-0.3,0.1-0.4,0.4-0.4
			s0.4,0.1,0.4,0.4v5.6h3.6l7.3-12.6l-1.1-2C41.9,20.1,41.6,20.3,41.3,20.5z"/>
		<path class="st2" d="M19.1,13.5c1.3,0,2.3-0.2,2.7-0.6c0.5-0.4,0.8-1.4,0.8-2.8c0-0.3,0-0.6,0-0.8h-1.1L19.1,13.5z"/>
		<path class="st2" d="M28.3,33v1.5h3.1C31,33.5,29.9,33,28.3,33z"/>
		<path class="st2" d="M34.8,26.7v-0.9h-1.1C34.1,26.1,34.5,26.4,34.8,26.7z"/>
		<path class="st2" d="M23.5,10.1c0,1.4-0.2,2.4-0.7,3.1c2-0.4,2.9-1.5,2.9-3.1c0-0.3,0-0.6-0.1-0.8h-2.1
			C23.5,9.6,23.5,9.8,23.5,10.1z"/>
		<path class="st2" d="M17.6,16.2l-2,3.5c0,0.4-0.1,0.6-0.2,0.9h2.4c-0.1-0.3-0.2-0.7-0.2-1.2V16.2z"/>
		<path class="st2" d="M40.4,17.2c0,1.3-0.3,2.3-1,3.1c1-0.3,1.8-0.6,2.3-1.1l-1.4-2.4C40.4,16.9,40.4,17.1,40.4,17.2z"/>
		<path class="st2" d="M32.7,19.3c0,0.5-0.1,1-0.2,1.3h2.3c-0.2-0.3-0.3-0.5-0.3-0.9V9.3h-1.8V19.3z"/>
		<path class="st2" d="M35.4,9.3v3.6l0,0c1.1,0,1.9-0.2,2.4-0.6L36,9.2h-0.6V9.3z"/>
		<path class="st2" d="M20.2,14.3l4,6.2h2.1c-1.1-1-2.7-3.2-4.8-6.5C21.2,14.2,20.8,14.3,20.2,14.3z"/>
	</g>
	<g>
		<g>
			<g>
				<path d="M30,9.7c-0.5-0.6-1.2-0.9-2.3-0.9h-1.2v5.9c0,0.3,0.1,0.5,0.4,0.7c0.2,0.1,0.5,0.2,0.8,0.2c1.9,0,2.9-1.1,2.9-3.4
					C30.5,11.1,30.4,10.2,30,9.7z"/>
			</g>
			<g>
				<path d="M22.6,26.6c-0.3,0.3-0.7,0.6-1.1,0.9c0.4,0.2,0.8,0.4,1.1,0.7V26.6z"/>
			</g>
			<g>
				<path d="M18.5,22.2c0-0.5,0.1-0.9,0.2-1.3h-2.3c0.1,0.3,0.2,0.7,0.2,1.2v7.3h1.9C18.5,29.4,18.5,22.2,18.5,22.2z"/>
			</g>
			<g>
				<path d="M32.3,15.5c-1.2,0.6-2.6,0.9-4.2,0.9H21c-0.3,0-0.4-0.1-0.4-0.5c0-0.3,0.3-0.4,0.8-0.4s0.9-0.1,1.1-0.2
					c0.2-0.2,0.3-0.5,0.3-1.1v-10h-5.3c0.1,0.3,0.1,0.5,0.1,0.8c0,2.2-1.3,3.5-4,4c2.7,4.3,4.5,6.5,5.2,6.5c0.3,0,0.4,0.1,0.4,0.4
					s-0.1,0.4-0.4,0.4H15c-0.1,0-0.2-0.1-0.3-0.2l-4.5-6.9H9.6L9.5,9.7v4.7c0,0.6,0.1,0.9,0.3,1.1c0.2,0.1,0.5,0.2,1,0.2
					s0.7,0.1,0.7,0.4c0,0.3-0.1,0.4-0.4,0.4H5.6L5.3,17l7.3,12.6h3.2v-7.3c0-0.6-0.1-0.9-0.3-1.1C15.3,21.1,15,21,14.4,21
					c-0.4,0-0.5-0.1-0.5-0.5c0-0.3,0.1-0.4,0.4-0.4h12.1c0.3,0,0.4,0.1,0.4,0.4v3.7c0,0.3-0.1,0.4-0.4,0.4s-0.5-0.1-0.5-0.4
					c0-1-0.5-1.8-1.5-2.4c-0.9-0.5-1.8-0.8-2.9-0.8H20c-0.4,0-0.6,0.4-0.6,1.3v4.9c2.2,0,3.3-1.1,3.3-3.2c0-0.3,0.1-0.4,0.4-0.4
					s0.4,0.1,0.4,0.4v5.6h3.6L34.4,17l-1.1-2C32.9,15.1,32.6,15.3,32.3,15.5z"/>
			</g>
			<g>
				<path d="M10.1,8.5c1.3,0,2.3-0.2,2.7-0.6c0.5-0.4,0.8-1.4,0.8-2.8c0-0.3,0-0.6,0-0.8h-1.1L10.1,8.5z"/>
			</g>
			<g>
				<path d="M19.3,28v1.5h3.1C22,28.5,20.9,28,19.3,28z"/>
			</g>
			<g>
				<path d="M25.8,21.7v-0.9h-1.1C25.1,21.1,25.5,21.4,25.8,21.7z"/>
			</g>
			<g>
				<path d="M14.5,5.1c0,1.4-0.2,2.4-0.7,3.1c2-0.4,2.9-1.5,2.9-3.1c0-0.3,0-0.6-0.1-0.8h-2.1C14.5,4.6,14.5,4.8,14.5,5.1z"/>
			</g>
			<g>
				<path d="M8.6,11.2l-2,3.5c0,0.4-0.1,0.6-0.2,0.9h2.4c-0.1-0.3-0.2-0.7-0.2-1.2C8.6,14.4,8.6,11.2,8.6,11.2z"/>
			</g>
			<g>
				<path d="M31.4,12.2c0,1.3-0.3,2.3-1,3.1c1-0.3,1.8-0.6,2.3-1.1l-1.4-2.4C31.4,11.9,31.4,12.1,31.4,12.2z"/>
			</g>
			<g>
				<path d="M23.7,14.3c0,0.5-0.1,1-0.2,1.3h2.3c-0.2-0.3-0.3-0.5-0.3-0.9V4.3h-1.8V14.3z"/>
			</g>
			<g>
				<path d="M26.4,4.3v3.6l0,0c1.1,0,1.9-0.2,2.4-0.6L27,4.2L26.4,4.3L26.4,4.3z"/>
			</g>
			<g>
				<path d="M11.2,9.3l4,6.2h2.1c-1.1-1-2.7-3.2-4.8-6.5C12.2,9.2,11.8,9.3,11.2,9.3z"/>
			</g>
		</g>
	</g>
</g>
</svg>
